<?xml version="1.0" standalone="no"?><!DOCTYPE svg PUBLIC "-//W3C//DTD SVG 1.1//EN" "http://www.w3.org/Graphics/SVG/1.1/DTD/svg11.dtd"><svg t="1624116135921" class="icon" viewBox="0 0 1035 1024" version="1.1" xmlns="http://www.w3.org/2000/svg" p-id="7064" xmlns:xlink="http://www.w3.org/1999/xlink" width="202.1484375" height="200"><defs><style type="text/css"></style></defs><path d="M711.165336 699.977924m-324.022076 0a324.022076 324.022076 0 1 0 648.044152 0 324.022076 324.022076 0 1 0-648.044152 0Z" fill="#5CF1E7" p-id="7065"></path><path d="M817.302437 995.478576H144.009812A144.009812 144.009812 0 0 1 0 851.468765V178.643704A144.009812 144.009812 0 0 1 144.009812 34.633892h336.646312a46.756432 46.756432 0 0 1 0 93.512865h-336.646312A50.496947 50.496947 0 0 0 93.512865 178.643704v672.825061a50.496947 50.496947 0 0 0 50.496947 50.496947h673.292625a50.496947 50.496947 0 0 0 50.496947-50.496947v-376.856845a46.756432 46.756432 0 0 1 93.512864 0v376.856845a144.477376 144.477376 0 0 1-144.009811 144.009811z" fill="#1F56F5" p-id="7066"></path><path d="M812.626794 106.171234L894.918115 187.059861l-374.051459 374.051459-100.058765 18.235009 17.767444-100.058766 374.051459-374.051458m0-105.201973a62.653619 62.653619 0 0 0-46.756433 18.702573L364.232608 420.842023a52.367204 52.367204 0 0 0-14.494494 28.053859l-29.924117 170.193414a52.367204 52.367204 0 0 0 51.432076 61.718491h9.351286l170.193414-30.391681a52.367204 52.367204 0 0 0 28.053859-14.494494L981.885079 233.816294a63.588748 63.588748 0 0 0 0-89.77235L857.512969 18.736705a62.653619 62.653619 0 0 0-46.756433-18.702573z" fill="#A8B9E9" p-id="7067"></path></svg>